# xmcd
# 
# Track frame offsets:
#     150
#     15134
#     33525
#     54230
#     71137
#     83369
#     101326
#     110322
#     127670
#     145733
#     161111
#     175991
#     183997
# 
# Disc length: 2681
# 
# Revision: 4
# Processed by: cddbd v1.5.2PL0 Copyright (c) Steve Scherf et al.
# Submitted via: fre:ac v1.0.17
# 
DISCID=960a770d
DTITLE=Deryl Dodd - Together Again
DYEAR=2009
DGENRE=Country
TTITLE0=Together Again
TTITLE1=Back To The Honky Tonks
TTITLE2=You're Not Lookin For
TTITLE3=Life Behind Bars
TTITLE4=Death Taxes And Texas
TTITLE5=Things You Don't Know
TTITLE6=Beer And The Belly
TTITLE7=It Don't Take Much
TTITLE8=Lost Highway
TTITLE9=All I Know
TTITLE10=I'll Fly Away
TTITLE11=John The Revelator
TTITLE12=Home for Christmas
EXTD=2009
EXTT0=
EXTT1=
EXTT2=
EXTT3=
EXTT4=
EXTT5=
EXTT6=
EXTT7=
EXTT8=
EXTT9=
EXTT10=
EXTT11=
EXTT12=
PLAYORDER=
